<svg xmlns="http://www.w3.org/2000/svg" xmlns:xlink="http://www.w3.org/1999/xlink" width="1075px" height="1000px" viewBox="0 0 1075 1000" version="1.1">
  <defs>
    <linearGradient xmlns="http://www.w3.org/2000/svg" x1="76.6072193%" y1="17.7721918%" x2="46.7902326%" y2="90.314167%" id="linearGradient-1">
          <stop stop-color="#FFFFFF" stop-opacity="0" offset="0%"/>
          <stop stop-color="#FFFFFF" stop-opacity="0.01" offset="45.153768%"/>
          <stop stop-color="#FFFFFF" stop-opacity="0.45" offset="66.325596%"/>
          <stop stop-color="#FFFFFF" stop-opacity="1" offset="71.325596%"/>
          <stop stop-color="#FFFFFF" offset="100%"/>
      </linearGradient>
      <linearGradient xmlns="http://www.w3.org/2000/svg" x1="100%" y1="11.648373%" x2="0%" y2="37.64566%" id="linearGradient-2">
          <stop stop-color="#FFFFFF" stop-opacity="0" offset="0%"/>
          <stop stop-color="#FFFFFF" stop-opacity="0.01" offset="26.414157%"/>
          <stop stop-color="#FFFFFF" stop-opacity=".03" offset="28.786991%"/>
          <stop stop-color="#FFFFFF" stop-opacity="0.4" offset="74.444297%"/>
          <stop stop-color="#FFFFFF" stop-opacity=".9" offset="89.004805%"/>
          <stop stop-color="#FFFFFF" offset="100%"/>
      </linearGradient>
      <linearGradient xmlns="http://www.w3.org/2000/svg" x1="9.42708205%" y1="31.369773%" x2="32.1481494%" y2="85.0370463%" id="linearGradient-3">
          <stop stop-color="#FFFFFF" stop-opacity="0.01" offset="20%"></stop>
          <stop stop-color="#FFFFFF" stop-opacity="0.09" offset="29%"></stop>
          <stop stop-color="#FFFFFF" stop-opacity="1" offset="85%"></stop>
          <stop stop-color="#FFFFFF" offset="100%"></stop>
        </linearGradient>
      <linearGradient xmlns="http://www.w3.org/2000/svg" x1="20.6186749%" y1="16.1607843%" x2="81.6038417%" y2="13.8365824%" id="linearGradient-4">
          <stop stop-color="#FFFFFF" stop-opacity="0.1" offset="7%"></stop>
          <stop stop-color="#FFFFFF" stop-opacity="0.8" offset="77%"></stop>
          <stop stop-color="#FFFFFF" stop-opacity="1" offset="84%"></stop>
          <stop stop-color="#FFFFFF" offset="100%"></stop>
      </linearGradient>
      <linearGradient xmlns="http://www.w3.org/2000/svg" x1="43.413264%" y1="89.7283884%" x2="85.3162012%" y2="-0.981075152%" id="linearGradient-5">
          <stop stop-color="#FFFFFF" stop-opacity="0" offset="0%"></stop>
          <stop stop-color="#FFFFFF" stop-opacity="0.09" offset="33.2457681%"></stop>
          <stop stop-color="#FFFFFF" stop-opacity="0.65" offset="75.118969%"></stop>
          <stop stop-color="#FFFFFF" stop-opacity="1" offset="82.708243%"></stop>
          <stop stop-color="#FFFFFF" offset="100%"></stop>
      </linearGradient>
      <linearGradient xmlns="http://www.w3.org/2000/svg" x1="51.4953155%" y1="105.478755%" x2="60.430795%" y2="1.77781456%" id="linearGradient-6">
          <stop stop-color="#FFFFFF" stop-opacity="0.03" offset="0%"/>
          <stop stop-color="#FFFFFF" stop-opacity="0.03" offset="52.2040714%"/>
          <stop stop-color="#FFFFFF" stop-opacity="0.24" offset="82.31422%"/>
          <stop stop-color="#FFFFFF" stop-opacity="0.34" offset="87.31422%"/>
          <stop stop-color="#FFFFFF" stop-opacity="1" offset="98.012823%"/>
          <stop stop-color="#FFFFFF" offset="100%"/>
      </linearGradient>
      <linearGradient xmlns="http://www.w3.org/2000/svg" x1="67.4550391%" y1="72.3099099%" x2="61.2105494%" y2="-3.45539652%" id="linearGradient-8">
          <stop stop-color="#FFFFFF" stop-opacity="0.025" offset="0%"></stop>
          <stop stop-color="#FFFFFF" stop-opacity="0.12" offset="38.6990216%"></stop>
          <stop stop-color="#FFFFFF" stop-opacity="0.28" offset="58%"></stop>
          <stop stop-color="#FFFFFF" stop-opacity="0.7" offset="69%"></stop>
          <stop stop-color="#FFFFFF" stop-opacity="1" offset="69%"></stop>
          <stop stop-color="#FFFFFF" offset="100%"></stop>
      </linearGradient>
      <linearGradient x1="61.8523516%" y1="67.8204112%" x2="22.7775162%" y2="43.2613111%" id="linearGradient-9">
        <stop stop-color="#FFFFFF" stop-opacity="0" offset="0%"></stop>
        <stop stop-color="#FFFFFF" stop-opacity="0.1" offset="27%"></stop>
        <stop stop-color="#FFFFFF" stop-opacity="0.23" offset="36%"></stop>
        <stop stop-color="#FFFFFF" stop-opacity="1" offset="54%"></stop>
        <stop stop-color="#FFFFFF" offset="100%"></stop>
    </linearGradient>
    </defs>
    <!-- avatar -->
    <g id="Page-1" stroke="none" stroke-width="1" fill="none" fill-rule="evenodd">
        <g id="linear-gradient-avatar-reverse-copy-4">
            <path d="M123.549594,398.673443 C119.931921,398.673443 116.271533,397.758689 112.91344,395.824262 L10.6624407,336.922623 C0.466584461,331.043934 -3.02294158,318.034098 2.85865128,307.860328 C8.75010155,297.699672 21.7783226,294.220984 31.9807504,300.073443 L134.228464,358.981639 C144.42432,364.857049 147.917132,377.866885 142.032253,388.037377 C138.082714,394.857049 130.916371,398.673443 123.549594,398.673443 Z M298.435307,224.211475 C291.06853,224.211475 283.902187,220.401639 279.949362,213.57541 L220.909999,111.545902 C215.028406,101.37541 218.521218,88.3622951 228.713789,82.4868852 C238.949074,76.6213115 251.954295,80.1131148 257.839173,90.2737705 L316.875251,192.303279 C322.756844,202.477049 319.267318,215.486885 309.071462,221.362295 C305.713368,223.293443 302.05298,224.211475 298.435307,224.211475 Z M537.246707,160.357049 C525.473663,160.357049 515.928397,150.832459 515.928397,139.084918 L515.928397,21.2718033 C515.928397,9.5242623 525.473663,-0.000327868852 537.246707,-0.000327868852 C549.013178,-0.000327868852 558.565016,9.5242623 558.565016,21.2718033 L558.565016,139.084918 C558.565016,150.832459 549.013178,160.357049 537.246707,160.357049 Z M776.064349,224.211475 C772.446676,224.211475 768.786288,223.293443 765.428194,221.362295 C755.225767,215.486885 751.736241,202.483607 757.624405,192.303279 L816.650625,90.2737705 C822.542076,80.1065574 835.58344,76.6344262 845.772724,82.4868852 C855.971866,88.3622951 859.464678,101.368852 853.576514,111.545902 L794.550294,213.57541 C790.597469,220.395082 783.431126,224.211475 776.064349,224.211475 Z M950.950391,398.673443 C943.583614,398.673443 936.417271,394.863607 932.464446,388.037377 C926.576281,377.866885 930.072379,364.857049 940.268235,358.981639 L1042.51266,300.073443 C1052.72823,294.220984 1065.74988,297.689836 1071.63476,307.860328 C1077.52293,318.034098 1074.0334,331.043934 1063.83097,336.922623 L961.586545,395.824262 C958.228451,397.758689 954.568063,398.673443 950.950391,398.673443 Z" id="Combined-Shape" fill="#FFFFFF"/>
            <path d="M426.138817,807.739344 C589.28566,901.729508 771.920619,892.090164 833.177901,786.201639 C894.441755,680.322951 811.521153,517.713115 648.348024,423.706557 C485.168323,329.703279 302.579366,339.355738 241.315512,445.234426 C180.048372,551.106557 262.965688,713.72623 426.138817,807.739344 M649.176047,914.165574 C572.068036,914.165574 485.989775,891.339344 404.823793,844.581967 C221.285238,738.840984 131.375727,550.155738 204.392909,423.962295 C277.400234,297.785246 486.124493,281.132787 669.663048,386.860656 C853.195032,492.591803 943.114401,681.283607 870.100504,807.470492 C829.369652,877.854098 746.416192,914.165574 649.176047,914.165574" id="Fill-17" fill="url(#linearGradient-1)" transform="translate(537.245146, 615.723541) rotate(-1.FFFFFF) translate(-537.245146, -615.723541) "/>
            <path d="M426.138817,807.739344 C589.28566,901.729508 771.920619,892.090164 833.177901,786.201639 C894.441755,680.322951 811.521153,517.713115 648.348024,423.706557 C485.168323,329.703279 302.579366,339.355738 241.315512,445.234426 C180.048372,551.106557 262.965688,713.72623 426.138817,807.739344 M648.704345,913.566741 C571.673694,913.566741 485.681792,890.763412 404.597241,844.052945 C221.242824,738.418048 131.423516,549.922103 204.367442,423.855266 C277.301522,297.804806 485.816375,281.169054 669.170792,386.790849 C852.518644,492.415921 942.3478,680.918416 869.407156,806.978702 C828.717168,877.291695 745.846932,913.566741 648.704345,913.566741" id="Fill-17" fill="url(#linearGradient-2)" transform="translate(536.885740, 615.424125) rotate(-1.FFFFFF) translate(-536.885740, -615.424125) "/>
            <path d="M537.435969,274.569194 C497.684287,274.569194 457.834031,281.579138 419.416387,295.664601 C333.735708,327.068365 265.4468,389.889007 227.121158,472.549299 C188.792231,555.199755 185.016839,647.807742 216.48829,733.294308 C247.95974,818.797267 310.91907,886.939303 393.754241,925.182516 C476.595984,963.435566 569.403576,967.209395 655.077684,935.78268 C740.751791,904.378916 809.037413,841.568111 847.363055,758.914376 L847.363055,758.904539 C885.698554,676.250805 889.473945,583.646096 857.999209,498.146416 C826.524472,412.65985 763.568428,344.514536 680.736543,306.271322 C635.04741,285.179194 586.318906,274.569194 537.435969,274.569194 M537.028529,999.442679 C482.04385,999.442679 427.243177,987.521183 375.849884,963.78967 C282.680853,920.77917 211.871732,844.125527 176.473744,747.966666 C141.069183,651.807804 145.31773,547.658655 188.42422,454.68345 C277.413706,262.759175 506.299671,178.862798 698.631043,267.66089 C791.806646,310.67139 862.61248,387.321754 898.013755,483.480616 C933.418315,579.646034 929.163197,683.801741 886.056707,776.780225 C842.950217,869.742316 766.141214,940.395866 669.775094,975.72428 C626.560173,991.567148 581.728635,999.442679 537.028529,999.442679" id="Fill-14" fill="url(#linearGradient-3)"/>
            <path d="M537.435969,274.569194 C497.684287,274.569194 457.834031,281.579138 419.416387,295.664601 C333.735708,327.068365 265.4468,389.889007 227.121158,472.549299 C188.792231,555.199755 185.016839,647.807742 216.48829,733.294308 C247.95974,818.797267 310.91907,886.939303 393.754241,925.182516 C476.595984,963.435566 569.403576,967.209395 655.077684,935.78268 C740.751791,904.378916 809.037413,841.568111 847.363055,758.914376 L847.363055,758.904539 C885.698554,676.250805 889.473945,583.646096 857.999209,498.146416 C826.524472,412.65985 763.568428,344.514536 680.736543,306.271322 C635.04741,285.179194 586.318906,274.569194 537.435969,274.569194 M537.028529,999.442679 C482.04385,999.442679 427.243177,987.521183 375.849884,963.78967 C282.680853,920.77917 211.871732,844.125527 176.473744,747.966666 C141.069183,651.807804 145.31773,547.658655 188.42422,454.68345 C277.413706,262.759175 506.299671,178.862798 698.631043,267.66089 C791.806646,310.67139 862.61248,387.321754 898.013755,483.480616 C933.418315,579.646034 929.163197,683.801741 886.056707,776.780225 C842.950217,869.742316 766.141214,940.395866 669.775094,975.72428 C626.560173,991.567148 581.728635,999.442679 537.028529,999.442679" id="Fill-14" fill="url(#linearGradient-4)"/>
            <path d="M699.694987,388.686885 C626.792808,388.686885 535.890983,414.136066 449.434854,463.945902 C289.025087,556.355738 193.716997,703.929508 241.315183,786.201639 C263.53709,824.598361 314.480227,844.785246 384.004598,842.877049 C458.497107,840.896721 544.102212,814.129508 625.057902,767.486885 C785.467669,675.080328 880.769188,527.509836 833.177573,445.234426 C811.231674,407.309836 762.046443,388.686885 699.694987,388.686885 M375.359642,885.532787 C294.118087,885.532787 233.623111,858.001639 204.392581,807.470492 C143.197728,701.703279 241.46633,534.62459 428.116544,427.1 C614.747043,319.581967 808.879037,318.195082 870.100175,423.962295 C931.288456,529.732787 833.019854,696.811475 646.376212,804.332787 C559.381211,854.447541 466.606476,883.237705 385.134915,885.398361 C381.849109,885.486885 378.583018,885.532787 375.359642,885.532787" id="Fill-19" fill="url(#linearGradient-5)"/>
            <path d="M699.694987,388.686885 C626.792808,388.686885 535.890983,414.136066 449.434854,463.945902 C289.025087,556.355738 193.716997,703.929508 241.315183,786.201639 C263.53709,824.598361 314.480227,844.785246 384.004598,842.877049 C458.497107,840.896721 544.102212,814.129508 625.057902,767.486885 C785.467669,675.080328 880.769188,527.509836 833.177573,445.234426 C811.231674,407.309836 762.046443,388.686885 699.694987,388.686885 M375.359642,885.532787 C294.118087,885.532787 233.623111,858.001639 204.392581,807.470492 C143.197728,701.703279 241.46633,534.62459 428.116544,427.1 C614.747043,319.581967 808.879037,318.195082 870.100175,423.962295 C931.288456,529.732787 833.019854,696.811475 646.376212,804.332787 C559.381211,854.447541 466.606476,883.237705 385.134915,885.398361 C381.849109,885.486885 378.583018,885.532787 375.359642,885.532787" id="Fill-19" fill="url(#linearGradient-6)"/>
            <path d="M670.173977,310.992782 C594.55115,310.992782 482.965176,403.894422 404.404839,539.668192 C311.791109,699.740323 293.837465,869.714094 365.208458,910.825569 C436.559737,951.97311 575.128751,851.458356 667.732623,691.376389 C714.667077,610.264913 743.641315,525.671471 749.332331,453.179668 C754.514047,387.179668 739.064187,338.717372 706.942147,320.215733 C696.105558,313.969831 683.708212,310.992782 670.173977,310.992782 M400.616305,962.182946 C380.070159,962.182946 360.950054,957.494422 343.890149,947.671471 C249.360794,893.209176 259.72094,704.645241 367.482236,518.396061 C475.246818,332.153438 633.6851,228.904258 728.260456,283.369831 C775.865215,310.796061 798.44856,372.281307 791.84409,456.4977 C785.663488,535.189504 754.707909,626.163274 704.658511,712.645241 C616.342616,865.291143 493.943054,962.182946 400.616305,962.182946" id="Fill-12" fill="url(#linearGradient-8)"/>
            <path d="M670.173977,310.992782 C594.55115,310.992782 482.965176,403.894422 404.404839,539.668192 C311.791109,699.740323 293.837465,869.714094 365.208458,910.825569 C436.559737,951.97311 575.128751,851.458356 667.732623,691.376389 C714.667077,610.264913 743.641315,525.671471 749.332331,453.179668 C754.514047,387.179668 739.064187,338.717372 706.942147,320.215733 C696.105558,313.969831 683.708212,310.992782 670.173977,310.992782 M400.616305,962.182946 C380.070159,962.182946 360.950054,957.494422 343.890149,947.671471 C249.360794,893.209176 259.72094,704.645241 367.482236,518.396061 C475.246818,332.153438 633.6851,228.904258 728.260456,283.369831 C775.865215,310.796061 798.44856,372.281307 791.84409,456.4977 C785.663488,535.189504 754.707909,626.163274 704.658511,712.645241 C616.342616,865.291143 493.943054,962.182946 400.616305,962.182946" id="Fill-12" fill="url(#linearGradient-9)"/>
        </g>
    </g>
</svg>
