<?xml version="1.0" encoding="utf-8"?>
<!DOCTYPE svg PUBLIC "-//W3C//DTD SVG 1.1//EN" "http://www.w3.org/Graphics/SVG/1.1/DTD/svg11.dtd">
<svg id="Layer_1" xmlns="http://www.w3.org/2000/svg" width="1000" height="1000" viewBox="-147 365 1000 1000"><style>.st0{fill:#5596E6;} .st1{fill:#FFFFFF;} .st2{fill:none;} .st3{fill:#264A60;}</style><circle class="st0" cx="353" cy="863.5" r="498.4"/><path class="st1" d="M467.8 854.7c-3.1 0-6.9-1.3-9.4-3.8-5-5-4.4-13.2.6-18.2C623.2 682.2 630.2 627 619.5 607.5c-18.2-33.2-116-22.6-174.3-8.2-6.9 1.9-13.8-2.5-15.7-9.4-1.9-6.9 2.5-13.8 9.4-15.7 1.9-.6 41.4-10 85.9-13.8 63.3-4.4 102.8 6.9 117.9 34.5 25.7 47.6-27 129.2-165.5 256.4-3.2 2.2-6.3 3.3-9.4 3.4zM58.3 1077.8c-21.3 0-32.6-6.9-39.5-14.4-37-41.4 37.6-147.3 52.7-168.7l20.7 15c-37.6 52-69.6 118.5-53.9 136.1 6.9 8.2 45.1 25.7 239.5-82.8l12.5 22.6c-128.6 71.6-195.7 92.2-232 92.2zm556.1-125.9c-64.6 0-184.3-19.4-405-79.6l6.9-25.1c407.5 111 447 75.2 450.8 67.1 5.6-11.9-28.2-52-84.6-90.9l14.4-21.3c27 18.2 113.5 80.9 94 122.9-7.4 14.2-24.4 26.9-76.5 26.9z"/><circle class="st1" cx="232.6" cy="859" r="33.2"/><circle class="st1" cx="284" cy="971.9" r="33.2"/><path class="st2" d="M353 368.8c-275.3 0-498.5 223.2-498.5 497.8S77.7 1365 352.9 1365s498.5-223.1 498.5-498.4S627.7 368.8 353 368.8zM599.3 817c0 149.2-120.4 269.6-269.6 269.6S60.1 966.3 60.1 817.1s120.4-269.6 269.7-269.6c149.2 0 269.5 120.4 269.5 269.5z"/><path class="st3" d="M598.8 803.2c-6.9-143.6-125.4-255.8-269-255.8-4.4 0-8.8 0-13.8.6-72.1 3.8-137.9 35.1-186.2 88.4S57 758.8 60.8 830.8c6.9 143.6 125.4 255.8 269 255.8h9.4v134.1l9.4-9.4c69-69 171.2-198.7 195-229.5 28.2-36.4 45.1-77.7 52-121 3.2-18 4.4-37.5 3.2-57.6zm-454 166.2c-32.6-39.5-52-89-54.5-140.4-2.5-58.3 15.7-115.4 52-161.1l68.3 62.1c-53.9 65.8-77.1 151.7-65.8 239.4zm163.6-151.7L175 966.3c-11.3-79.6 9.4-156.1 58.3-216.3l75.1 67.7zm129.2-169.9c8.2-.6 16.3-1.3 24.5-.6l-133.5 148-75.2-67.7c48.1-47.7 113.4-76.6 184.2-79.7zm-1.2-30.1c-79 4.4-151.7 35.7-205 89.7l-69-62.1c42-40.8 96.6-64.6 154.9-68.3 4.4-.6 8.8-.6 12.5-.6 48.3 0 93.4 14.4 132.9 40.8-8.7-.2-17.5-.2-26.3.5z"/><path class="st1" d="M468.3 854.7c-3.1 0-6.9-1.3-9.4-3.8-5-5-4.4-13.2.6-18.2C620 685.3 630 629.5 621.3 608.8c-6.9-17.6-36.4-25.7-82.8-23.8-6.9.6-13.2-5-13.2-12.5-.6-6.9 5-13.2 12.5-13.2 59.6-2.5 95.3 11.3 107.8 39.5 20.1 48.3-33.2 128.5-168 252-3 2.7-6.7 3.8-9.3 3.9zm-410 223.1c-20.1 0-30.7-5.6-37.6-13.2-20.1-19.4-15.7-55.8 13.8-111l22.6 11.9c-21.3 40.8-28.2 70.2-18.2 80.3 3.8 3.8 17.6 11.3 60.8-1.3 42-11.9 102.2-39.5 178.1-81.5l12.5 22.6c-129.2 71.6-195.7 92.2-232 92.2zm556.1-125.9c-75.2 0-208.8-26.3-405-79.6l6.9-25.1c294 79.6 399.4 84.6 436.4 75.2l6.9 25.1c-11.9 3-26.9 4.3-45.2 4.4z"/><circle class="st1" cx="232.6" cy="859" r="33.2"/><circle class="st1" cx="284.6" cy="971.9" r="33.2"/></svg>